<?xml version="1.0" encoding="UTF-8" standalone="no"?>
<svg
   width="32"
   height="32"
   version="1.1"
   id="svg12"
   sodipodi:docname="start.svg"
   inkscape:version="1.2.2 (b0a8486541, 2022-12-01)"
   xml:space="preserve"
   xmlns:inkscape="http://www.inkscape.org/namespaces/inkscape"
   xmlns:sodipodi="http://sodipodi.sourceforge.net/DTD/sodipodi-0.dtd"
   xmlns:xlink="http://www.w3.org/1999/xlink"
   xmlns="http://www.w3.org/2000/svg"
   xmlns:svg="http://www.w3.org/2000/svg"
   xmlns:rdf="http://www.w3.org/1999/02/22-rdf-syntax-ns#"
   xmlns:cc="http://creativecommons.org/ns#"
   xmlns:dc="http://purl.org/dc/elements/1.1/"><metadata
     id="metadata16"><rdf:RDF><cc:Work
         rdf:about=""><dc:format>image/svg+xml</dc:format><dc:type
           rdf:resource="http://purl.org/dc/dcmitype/StillImage" /><dc:title /></cc:Work></rdf:RDF></metadata><sodipodi:namedview
     pagecolor="#c8c8c8"
     bordercolor="#666666"
     borderopacity="1"
     objecttolerance="10"
     gridtolerance="10"
     guidetolerance="10"
     inkscape:pageopacity="0"
     inkscape:pageshadow="2"
     inkscape:window-width="1920"
     inkscape:window-height="989"
     id="namedview14"
     showgrid="true"
     inkscape:zoom="8"
     inkscape:cx="15.625"
     inkscape:cy="5.3125"
     inkscape:window-x="0"
     inkscape:window-y="0"
     inkscape:window-maximized="1"
     inkscape:current-layer="svg12"
     inkscape:snap-bbox="true"
     inkscape:bbox-nodes="true"
     inkscape:snap-bbox-edge-midpoints="true"
     inkscape:snap-nodes="true"
     inkscape:document-rotation="0"
     inkscape:object-paths="true"
     inkscape:snap-intersection-paths="true"
     inkscape:snap-smooth-nodes="true"
     inkscape:snap-midpoints="true"
     inkscape:pagecheckerboard="0"
     inkscape:showpageshadow="0"
     inkscape:deskcolor="#c8c8c8"><inkscape:grid
       type="xygrid"
       id="grid4539" /></sodipodi:namedview><defs
     id="defs7386"><style
       id="current-color-scheme"
       type="text/css">
   .ColorScheme-Text { color:#dedede; } .ColorScheme-Highlight { color:#5294e2; } .ColorScheme-ButtonBackground { color:#dedede; }
  </style><linearGradient
       id="linearGradient8660"
       x1="-7.6728001"
       x2="-5.027"
       y1="-29.104"
       y2="-27.252001"
       gradientTransform="matrix(3.3620413,0,0,3.3620413,56.979969,79.985673)"
       gradientUnits="userSpaceOnUse"><stop
         stop-color="#00bffb"
         offset="0"
         id="stop17" /><stop
         stop-color="#01a0f3"
         offset="1"
         id="stop19" /></linearGradient><linearGradient
       id="linearGradient8668"
       x1="-4.7624002"
       x2="-1.852"
       y1="-27.252001"
       y2="-30.122999"
       gradientTransform="matrix(3.5258028,0,0,3.3620413,57.757906,79.985673)"
       gradientUnits="userSpaceOnUse"><stop
         stop-color="#11c2f4"
         offset="0"
         id="stop12" /><stop
         stop-color="#2dc5f4"
         offset="1"
         id="stop14" /></linearGradient><linearGradient
       id="linearGradient8676"
       x1="-7.6728001"
       x2="-5.027"
       y1="-26.722"
       y2="-24.493"
       gradientTransform="matrix(3.3620413,0,0,3.3620413,56.979969,79.985673)"
       gradientUnits="userSpaceOnUse"><stop
         stop-color="#0954a8"
         offset="0"
         id="stop7" /><stop
         stop-color="#0954a8"
         offset="1"
         id="stop9" /></linearGradient><linearGradient
       id="linearGradient8684"
       x1="-4.4977999"
       x2="-1.852"
       y1="-26.722"
       y2="-24.111"
       gradientTransform="matrix(3.5258028,0,0,3.3620413,57.757906,79.985673)"
       gradientUnits="userSpaceOnUse"><stop
         stop-color="#339ed9"
         offset="0"
         id="stop2" /><stop
         stop-color="#2386c9"
         offset="1"
         id="stop4" /></linearGradient><linearGradient
       inkscape:collect="always"
       id="linearGradient5258"><stop
         style="stop-color:#5160b3;stop-opacity:1"
         offset="0"
         id="stop5254" /><stop
         style="stop-color:#7345d5;stop-opacity:1"
         offset="1"
         id="stop5256" /></linearGradient><linearGradient
       inkscape:collect="always"
       id="linearGradient1721"><stop
         style="stop-color:#5160b3;stop-opacity:1"
         offset="0"
         id="stop1717" /><stop
         style="stop-color:#7446d6;stop-opacity:1"
         offset="1"
         id="stop1719" /></linearGradient><linearGradient
       inkscape:collect="always"
       xlink:href="#linearGradient5258"
       id="linearGradient771"
       gradientUnits="userSpaceOnUse"
       x1="39"
       y1="39"
       x2="59"
       y2="59"
       gradientTransform="translate(-33.00002,-33)" /><linearGradient
       inkscape:collect="always"
       xlink:href="#linearGradient1721"
       id="linearGradient777"
       gradientUnits="userSpaceOnUse"
       x1="-35"
       y1="2"
       x2="-7"
       y2="30"
       gradientTransform="translate(37)" /></defs><circle
     r="11"
     cy="-13"
     cx="49.972176"
     id="path822"
     style="opacity:0;fill:#ffffff;fill-opacity:1;stroke:none;stroke-width:1.24874;stroke-linecap:round;stroke-linejoin:round;stroke-miterlimit:4;stroke-dasharray:none;stroke-opacity:1;paint-order:normal" /><g
     id="22-22-start-here-kde"
     transform="translate(27.00002,5)"><circle
       r="11"
       cy="16"
       cx="16"
       id="circle67980"
       style="opacity:0;fill:#ffffff;fill-opacity:1;stroke:none;stroke-width:1.24874;stroke-linecap:round;stroke-linejoin:round;stroke-miterlimit:4;stroke-dasharray:none;stroke-opacity:1;paint-order:normal" /><path
       id="rect264457"
       style="fill:url(#linearGradient771);fill-opacity:1;stroke-width:1.125;stroke-linejoin:round"
       d="m 7.1249795,6 c -0.623249,0 -1.125,0.501751 -1.125,1.125 V 13 13.875 15 h 1.125 0.875 5.8750005 1.125 V 13.875 7.125 6 h -1.125 z M 16.99998,6 V 8 13.875 15 h 2 4.99414 0.88086 1.11914 v -1.009766 c 0.0038,-0.03791 0.0059,-0.07628 0.0059,-0.115234 V 7.125 C 26.00002,6.501751 25.498269,6 24.87502,6 h -5.875 z M 5.9999795,17 V 18.125 19 24.875 c 0,0.623249 0.501751,1.125 1.125,1.125 h 6.7500005 1.125 V 24.875 18.125 17 h -1.125 -5.8750005 -0.875 z M 16.99998,17 V 19 24.875 26 h 2 5.875 c 0.623249,0 1.125,-0.501751 1.125,-1.125 v -6.75 c 0,-0.03895 -0.002,-0.07732 -0.0059,-0.115234 V 17 h -1.1191 -0.88086 -4.99414 z" /></g><g
     id="start-here-kde"><rect
       style="color:#bebebe;display:inline;overflow:visible;visibility:visible;fill:none;stroke:none;stroke-width:1;marker:none"
       id="rect6336-6"
       width="32"
       height="32"
       x="0"
       y="0" /><path
       id="rect913"
       style="fill:url(#linearGradient777);fill-opacity:1;stroke-width:1.08333;stroke-linejoin:round"
       d="M 4,2 C 2.8920011,2 2,2.892001 2,4 V 12.996094 13 14.996094 H 3.9179688 C 3.9453877,14.997204 3.9723,15 4,15 h 9 2 V 13 4 2 h -2 z m 13,0 v 2 9 2 h 2 9 2 V 13 4 C 30,2.892001 29.107999,2 28,2 H 19 Z M 2,17 v 2 9 c 0,1.107999 0.8920011,2 2,2 h 9 2 V 28 19 17 H 13 4 Z m 15,0 v 2 9 2 h 2 9 c 1.107999,0 2,-0.892001 2,-2 v -9 -2 h -2 -9 z" /></g><rect
     style="color:#bebebe;display:inline;overflow:visible;visibility:visible;fill:none;stroke:none;stroke-width:1;marker:none"
     id="rect6336-6-7"
     width="32"
     height="32"
     x="0"
     y="-34" /></svg>
